<svg xmlns="http://www.w3.org/2000/svg" viewBox="0 0 824 824"><path d="M 525.5060 0 c 105.5836 0 158.3754 0 198.5586 20.8735 a 185.4000 185.4000 0 0 1 79.0618 79.0618 c 20.8735 40.1833 20.8735 92.9751 20.8735 198.5586 L 824 525.5060 c 0 105.5836 0 158.3754 -20.8735 198.5586 a 185.4000 185.4000 0 0 1 -79.0618 79.0618 c -40.1833 20.8735 -92.9751 20.8735 -198.5586 20.8735 L 298.4940 824 c -105.5836 0 -158.3754 0 -198.5586 -20.8735 a 185.4000 185.4000 0 0 1 -79.0618 -79.0618 c -20.8735 -40.1833 -20.8735 -92.9751 -20.8735 -198.5586 L 0 298.4940 c 0 -105.5836 0 -158.3754 20.8735 -198.5586 a 185.4000 185.4000 0 0 1 79.0618 -79.0618 c 40.1833 -20.8735 92.9751 -20.8735 198.5586 -20.8735 Z"/></svg>
